<svg xmlns="http://www.w3.org/2000/svg" width="24" height="24" viewBox="0 0 24 24">
          <g fill="none" fill-rule="evenodd">
              <path d="M4 4h16v16H4z"/>
              <g fill="#4D4F53" fill-rule="nonzero">
                  <path d="M12.232 18.175l-.65-.275-1.562-.658c-.626-.266-1.254-.53-1.88-.795-.545-.23-1.088-.46-1.632-.688-.263-.11-.525-.232-.791-.335l-.01-.004c.076.127.151.255.228.382v-.687-1.648-1.985-1.718c0-.28.008-.56 0-.838v-.012l-.693.382.65.274c.52.22 1.04.44 1.562.659l1.88.794c.544.23 1.088.46 1.632.688.263.111.525.232.79.335l.012.004-.23-.381V17.706c0 .28-.006.56 0 .839v.011c0 .232.213.453.462.443.25-.01.462-.195.462-.443v-.686-1.648-1.986-1.717c0-.28.006-.56 0-.839v-.011c0-.142-.085-.322-.23-.382l-.65-.274c-.52-.22-1.04-.44-1.562-.659L8.14 9.56 6.508 8.87l-.791-.334-.01-.005c-.156-.066-.312-.087-.467 0a.442.442 0 0 0-.23.382V14.95c0 .28-.005.56 0 .839v.012c0 .141.085.32.23.381a1803668.683 1803668.683 0 0 0 2.212.933c.626.266 1.254.53 1.88.795.545.23 1.088.46 1.633.688l.79.335.011.004a.52.52 0 0 0 .356.044.463.463 0 0 0 .275-.203.428.428 0 0 0 .046-.34c-.032-.102-.103-.22-.21-.264z"/>
                  <path d="M18.294 15.418l-.65.275-1.562.658-1.88.795c-.545.23-1.088.46-1.633.688-.263.11-.53.217-.79.335l-.011.004.694.382v-.687-1.648-1.985-1.717c0-.28.007-.56 0-.839v-.012l-.23.382.651-.274c.52-.22 1.04-.44 1.562-.659l1.88-.794c.544-.23 1.087-.46 1.632-.689.263-.11.53-.216.79-.334l.011-.005-.693-.382v6.038c0 .28-.007.56 0 .838v.012c0 .232.212.453.461.442.25-.01.462-.194.462-.442v-.687-1.648-1.985-1.717c0-.28.006-.56 0-.839v-.012a.44.44 0 0 0-.23-.381c-.155-.087-.31-.067-.466 0a4281500.414 4281500.414 0 0 0-2.212.933l-1.88.794c-.545.23-1.088.46-1.632.688-.263.111-.533.214-.791.335l-.01.004c-.145.06-.23.24-.23.382V17.704c0 .28-.006.56 0 .84v.01a.44.44 0 0 0 .23.383c.155.087.31.066.465 0l.651-.275 1.562-.658c.626-.266 1.253-.53 1.88-.795.544-.23 1.087-.46 1.632-.688.263-.11.532-.214.79-.335l.011-.004c.099-.041.185-.17.213-.264a.434.434 0 0 0-.046-.34.468.468 0 0 0-.276-.204.558.558 0 0 0-.355.044z"/>
                  <path d="M18.294 8.532l-.65.274-1.562.66c-.627.264-1.254.528-1.88.794-.545.23-1.088.46-1.633.688-.263.11-.53.217-.79.335l-.011.004h.466l-.65-.274c-.52-.22-1.04-.44-1.562-.659l-1.88-.794-1.633-.689c-.263-.11-.524-.23-.79-.334l-.011-.005-.111.808.65-.246c.52-.196 1.04-.392 1.558-.59l1.883-.712 1.634-.617c.263-.099.532-.19.79-.3l.011-.004h-.246l.65.246c.52.196 1.04.392 1.558.59l1.883.712 1.634.617c.263.099.524.21.79.3l.011.004c.105.04.263.007.355-.044a.453.453 0 0 0 .213-.264.433.433 0 0 0-.046-.34.53.53 0 0 0-.276-.204L18 8.242l-1.564-.591-1.889-.715-1.63-.616c-.26-.099-.518-.208-.782-.296-.14-.048-.236-.01-.354.033-.135.052-.27.104-.406.154L9.9 6.768l-1.88.712-1.697.642-.926.351-.043.016c-.176.067-.305.179-.33.367-.022.158.053.37.22.441l.653.276 1.57.663c.628.265 1.258.53 1.887.797l1.626.687c.26.11.52.221.78.329.1.041.19.07.303.056a.717.717 0 0 0 .182-.056l.084-.035.405-.171c.49-.208.983-.415 1.474-.622.626-.264 1.252-.53 1.878-.793l1.703-.72.931-.392.043-.017a.434.434 0 0 0 .166-.604.468.468 0 0 0-.275-.204.53.53 0 0 0-.36.041z"/>
                  <path d="M14.957 10.211v1.921c0 .23.212.452.461.442.251-.01.462-.195.462-.442v-1.684-.237a.457.457 0 0 0-.462-.442c-.249.01-.461.193-.461.442z"/>
                  <path d="M8.77 8.065l.648.256 1.559.615 1.886.743 1.63.643c.264.103.525.218.793.312l.01.004c.104.042.266.008.356-.044a.453.453 0 0 0 .213-.264.433.433 0 0 0-.047-.34.546.546 0 0 0-.275-.203l-.65-.257-1.558-.615-1.886-.742c-.543-.214-1.086-.43-1.63-.643-.264-.103-.525-.218-.793-.313-.003-.001-.008-.002-.01-.004-.104-.041-.265-.007-.356.044a.453.453 0 0 0-.212.264.433.433 0 0 0 .046.34c.07.104.158.157.275.204z"/>
              </g>
          </g>
      </svg>