<svg xmlns="http://www.w3.org/2000/svg" xmlns:xlink="http://www.w3.org/1999/xlink" width="24" height="24" viewBox="0 0 24 24">
    <defs>
        <path id="a" d="M6.3 3.5h1.4v1.4H6.3V3.5zm0 2.8h1.4v4.2H6.3V6.3zM7 0C3.136 0 0 3.136 0 7s3.136 7 7 7 7-3.136 7-7-3.136-7-7-7zm0 12.6A5.607 5.607 0 0 1 1.4 7c0-3.087 2.513-5.6 5.6-5.6 3.087 0 5.6 2.513 5.6 5.6 0 3.087-2.513 5.6-5.6 5.6z"/>
    </defs>
    <g fill="none" fill-rule="evenodd" transform="translate(5 5)">
        <mask id="b" fill="#fff">
            <use xlink:href="#a"/>
        </mask>
        <use fill="#000" fill-rule="nonzero" xlink:href="#a"/>
        <g fill="#4D4F53" mask="url(#b)">
            <ellipse cx="9.129" cy="9.131" rx="9.129" ry="9.131" transform="translate(-2.1 -2.1)"/>
        </g>
    </g>
</svg>
