<svg xmlns="http://www.w3.org/2000/svg" width="24" height="24" viewBox="0 0 24 24">
    <g fill="#4D4F53" fill-rule="evenodd">
        <path d="M7 8h2v2H7V8zm0 4h2v2H7v-2zm0 4h2v2H7v-2zm4-8h2v2h-2V8zm0 4h2v2h-2v-2zm0 4h2v2h-2v-2zm4-8h2v2h-2V8zm0 4h2v2h-2v-2zm0 4h2v2h-2v-2z"/>
        <path fill-rule="nonzero" d="M18 4h1a2 2 0 0 1 2 2v14a2 2 0 0 1-2 2H5a2 2 0 0 1-2-2V6a2 2 0 0 1 2-2h1v2h4V4h4v2h4V4zm0 2H5v14h14V6h-1z"/>
        <rect width="2" height="4" x="7" y="2" rx="1"/>
        <rect width="2" height="4" x="15" y="2" rx="1"/>
    </g>
</svg>
