<?xml version="1.0" standalone="no"?>
<!DOCTYPE svg PUBLIC "-//W3C//DTD SVG 20010904//EN"
 "http://www.w3.org/TR/2001/REC-SVG-20010904/DTD/svg10.dtd">
<svg version="1.0" xmlns="http://www.w3.org/2000/svg"
 width="312.000000pt" height="303.000000pt" viewBox="0 0 312.000000 303.000000"
 preserveAspectRatio="xMidYMid meet">
<metadata>
Created by potrace 1.15, written by Peter Selinger 2001-2017
</metadata>
<g transform="translate(0.000000,303.000000) scale(0.100000,-0.100000)"
fill="#007ac9" stroke="none">
<path d="M1410 2623 c-87 -13 -189 -37 -215 -48 -16 -8 -59 -26 -94 -40 -35
-15 -75 -34 -90 -44 -14 -10 -53 -35 -86 -57 -175 -115 -347 -335 -405 -519
-7 -22 -16 -44 -20 -50 -18 -22 -43 -177 -47 -291 -7 -154 18 -333 57 -419 5
-11 21 -49 34 -84 77 -192 280 -411 488 -524 77 -42 246 -101 332 -116 139
-25 406 -9 516 31 8 3 44 16 80 29 69 24 172 80 255 138 112 79 252 235 305
341 13 25 26 47 30 50 12 8 87 229 101 295 19 91 17 333 -5 440 -10 49 -21 94
-25 100 -4 5 -18 39 -31 75 -119 339 -461 621 -829 684 -86 15 -285 20 -351 9z
m633 -230 c-4 -10 -15 -31 -24 -48 -10 -16 -50 -88 -89 -160 -112 -203 -204
-368 -223 -396 -17 -26 -17 -27 10 -44 30 -20 18 -29 98 75 22 29 74 96 115
149 42 53 98 125 125 161 28 36 52 67 55 70 3 3 17 21 30 40 27 40 60 75 60
63 0 -4 -13 -30 -29 -58 -15 -27 -58 -103 -94 -168 -37 -65 -67 -122 -67 -127
0 -6 -4 -10 -8 -10 -5 0 -16 -17 -26 -37 -10 -21 -49 -93 -88 -161 -68 -121
-70 -124 -63 -175 6 -38 14 -56 33 -72 14 -11 74 -56 132 -101 58 -44 139
-106 180 -138 41 -31 117 -89 168 -127 50 -39 92 -75 92 -81 0 -5 -26 5 -57
23 -132 75 -307 169 -315 169 -4 0 -8 5 -8 10 0 6 -4 10 -10 10 -5 0 -32 13
-60 30 -27 16 -50 26 -50 22 0 -4 -4 -2 -8 4 -4 6 -34 25 -67 42 l-60 33 -17
-23 c-17 -22 -17 -24 5 -41 12 -10 34 -28 48 -40 28 -25 209 -164 243 -187 26
-18 212 -162 245 -190 35 -29 14 -24 -44 10 -27 16 -70 40 -95 53 -25 13 -83
45 -130 72 -74 42 -322 179 -383 212 -14 7 -39 8 -70 3 -49 -7 -68 -22 -115
-90 -17 -25 -211 -279 -256 -335 -14 -16 -52 -67 -87 -113 -34 -45 -64 -80
-67 -78 -4 5 80 160 188 346 21 36 60 106 87 155 27 50 56 100 63 112 12 19
12 24 -4 42 -11 12 -23 21 -27 21 -7 0 -82 -94 -184 -230 -27 -36 -52 -67 -55
-70 -3 -3 -32 -41 -65 -85 -33 -44 -70 -91 -83 -105 -12 -14 -24 -32 -27 -40
-3 -8 -14 -21 -25 -28 -23 -14 -10 12 109 223 38 66 100 176 138 245 38 69 79
142 91 162 18 31 20 46 14 91 l-7 54 -103 79 c-57 43 -115 88 -129 99 -47 35
-307 235 -333 256 -14 11 -32 24 -40 29 -8 5 -11 10 -6 10 10 0 76 -33 185
-94 46 -25 87 -46 91 -46 5 0 10 -4 12 -8 2 -4 39 -28 83 -51 44 -24 98 -54
120 -66 22 -12 66 -37 98 -55 l57 -32 20 24 c18 21 18 24 2 36 -33 24 -116 88
-191 147 -42 33 -134 105 -206 160 -71 54 -136 105 -143 112 -7 7 -18 13 -23
13 -6 0 -7 5 -4 10 4 7 11 7 18 2 7 -5 39 -24 72 -43 33 -18 89 -50 125 -70
36 -21 97 -54 135 -75 39 -20 77 -42 85 -49 8 -6 51 -31 95 -55 44 -23 100
-54 124 -68 38 -22 47 -24 75 -14 18 7 41 12 52 12 12 0 44 33 89 92 39 51
112 146 163 213 51 66 124 162 163 213 71 93 84 106 72 75z"/>
</g>
</svg>
