<svg xmlns="http://www.w3.org/2000/svg" width="113" height="23" viewBox="0 0 113 23">
    <g fill="#007AC9" fill-rule="evenodd">
        <path d="M53.91.657h6.844v14.862h7.397l-1.923 6.01H53.91V.656M0 .657v20.871h15.488V15.52H6.846v-1.703h7.499V8.372H6.846V6.666h8.642V.656H0M28.089 15.52c-2.84 0-4.926-1.618-4.926-4.428 0-2.811 2.055-4.426 4.926-4.426h3.146V.656h-4.706c-6.888 0-10.593 4.446-10.593 10.436s3.738 10.436 10.624 10.436h4.675V15.52h-3.146M97.034 5.286v3.18h2.092c1.29 0 1.785-.606 1.785-1.59 0-1.055-.516-1.59-1.785-1.59h-2.092zm.011 7.828v3.67h2.279c1.398 0 2.008-.6 2.008-1.836 0-1.166-.577-1.834-2.008-1.834h-2.279zM90.368.645h10.792c4.035 0 6.451 2.352 6.451 5.446 0 2.62-1.294 4.052-2.972 4.613v.051c1.919.564 3.625 2.191 3.625 4.799 0 3.701-2.434 5.974-7.145 5.974H90.368V.645zM78.507 6.408h-.088l-1.845 7.109h3.779l-1.846-7.109zm11.357 15.12h-7.447l-.74-2.79h-6.445l-.722 2.79h-7.446L73.514.635h9.921l6.429 20.893zM43.141 13.538c-.27.097-.557.152-.858.152-.037 0-.073-.004-.11-.005l-4.797 6.367 3.666-6.682a2.61 2.61 0 0 1-.537-.402l-4.573 6.086 3.9-7.137a2.688 2.688 0 0 1-.15-.879c0-.04.005-.08.008-.12l-6.291-4.935 6.606 3.777a2.72 2.72 0 0 1 .366-.516L34.4 4.499l7.006 4.043c.274-.1.569-.157.877-.157.04 0 .08.004.12.005l4.794-6.377-3.655 6.705c.185.105.354.232.508.379l4.593-6.05-3.904 7.129c.091.27.144.559.144.862 0 .026-.004.05-.006.076l6.2 4.878-6.52-3.672c-.103.19-.23.365-.373.523l5.912 4.647-6.955-3.952zM42.285.037c-5.955 0-10.782 4.925-10.782 11.001 0 6.078 4.827 11.003 10.782 11.003s10.783-4.925 10.783-11.003C53.068 4.962 48.24.037 42.285.037zM110.614 1.9h-.602v.784h.568c.324 0 .478-.123.478-.388 0-.262-.16-.395-.444-.395zm.221 1.05l.505.991h-.351l-.489-.968h-.487v.968h-.302V1.63h.92c.409 0 .727.209.727.667 0 .347-.204.579-.523.654zm-.386-1.954c-1.005 0-1.773.749-1.773 1.827 0 1.078.768 1.826 1.773 1.826 1.006 0 1.772-.748 1.772-1.826S111.455.996 110.45.996zm0 3.92c-1.164 0-2.05-.847-2.05-2.093s.886-2.093 2.05-2.093c1.165 0 2.051.847 2.051 2.093s-.886 2.093-2.051 2.093z"/>
    </g>
</svg>
