<svg xmlns="http://www.w3.org/2000/svg" xmlns:xlink="http://www.w3.org/1999/xlink" width="24" height="24" viewBox="0 0 24 24">
    <defs>
        <path id="a" d="M13.944 8.784C13.976 8.528 14 8.272 14 8s-.024-.528-.056-.784l1.688-1.32a.404.404 0 0 0 .096-.512l-1.6-2.768a.4.4 0 0 0-.488-.176l-1.992.8a5.845 5.845 0 0 0-1.352-.784L9.992.336A.39.39 0 0 0 9.6 0H6.4a.39.39 0 0 0-.392.336l-.304 2.12c-.488.2-.936.472-1.352.784l-1.992-.8a.453.453 0 0 0-.144-.024.396.396 0 0 0-.344.2l-1.6 2.768a.394.394 0 0 0 .096.512l1.688 1.32C2.024 7.472 2 7.736 2 8s.024.528.056.784l-1.688 1.32a.404.404 0 0 0-.096.512l1.6 2.768a.4.4 0 0 0 .488.176l1.992-.8c.416.32.864.584 1.352.784l.304 2.12A.39.39 0 0 0 6.4 16h3.2a.39.39 0 0 0 .392-.336l.304-2.12c.488-.2.936-.472 1.352-.784l1.992.8a.453.453 0 0 0 .144.024.396.396 0 0 0 .344-.2l1.6-2.768a.404.404 0 0 0-.096-.512l-1.688-1.32zM12.36 7.416c.032.248.04.416.04.584 0 .168-.016.344-.04.584l-.112.904.712.56.864.672-.56.968-1.016-.408-.832-.336-.72.544a4.685 4.685 0 0 1-1 .584l-.848.344-.128.904-.16 1.08H7.44l-.152-1.08-.128-.904-.848-.344a4.54 4.54 0 0 1-.984-.568l-.728-.56-.848.344-1.016.408-.56-.968.864-.672.712-.56-.112-.904A6.435 6.435 0 0 1 3.6 8c0-.16.016-.344.04-.584l.112-.904-.712-.56-.864-.672.56-.968 1.016.408.832.336.72-.544a4.685 4.685 0 0 1 1-.584l.848-.344.128-.904.16-1.08h1.112l.152 1.08.128.904.848.344c.344.144.664.328.984.568l.728.56.848-.344 1.016-.408.56.968-.856.68-.712.56.112.904zM8 4.8a3.2 3.2 0 1 0 0 6.4 3.2 3.2 0 1 0 0-6.4zm0 4.8c-.88 0-1.6-.72-1.6-1.6 0-.88.72-1.6 1.6-1.6.88 0 1.6.72 1.6 1.6 0 .88-.72 1.6-1.6 1.6z"/>
    </defs>
    <g fill="none" fill-rule="evenodd" transform="translate(4 4)">
        <mask id="b" fill="#fff">
            <use xlink:href="#a"/>
        </mask>
        <use fill="#000" fill-rule="nonzero" xlink:href="#a"/>
        <g fill="#007ac9" mask="url(#b)">
            <path d="M-4 22V-4h26v26z"/>
        </g>
    </g>
</svg>
