<svg xmlns="http://www.w3.org/2000/svg" xmlns:xlink="http://www.w3.org/1999/xlink" width="24" height="24" viewBox="0 0 24 24">
    <defs>
        <path id="a" d="M9 0C4.032 0 0 4.032 0 9s4.032 9 9 9 9-4.032 9-9-4.032-9-9-9zM4.563 14.652C4.95 13.842 7.308 13.05 9 13.05c1.692 0 4.059.792 4.437 1.602A7.103 7.103 0 0 1 9 16.2a7.103 7.103 0 0 1-4.437-1.548zm10.161-1.305C13.437 11.781 10.314 11.25 9 11.25s-4.437.531-5.724 2.097A7.155 7.155 0 0 1 1.8 9c0-3.969 3.231-7.2 7.2-7.2 3.969 0 7.2 3.231 7.2 7.2a7.155 7.155 0 0 1-1.476 4.347zM9 3.6a3.142 3.142 0 0 0-3.15 3.15A3.142 3.142 0 0 0 9 9.9a3.142 3.142 0 0 0 3.15-3.15A3.142 3.142 0 0 0 9 3.6zm0 4.5c-.747 0-1.35-.603-1.35-1.35 0-.747.603-1.35 1.35-1.35.747 0 1.35.603 1.35 1.35 0 .747-.603 1.35-1.35 1.35z"/>
    </defs>
    <g fill="none" fill-rule="evenodd" transform="translate(3 3)">
        <mask id="b" fill="#fff">
            <use xlink:href="#a"/>
        </mask>
        <use fill="#000" fill-rule="nonzero" xlink:href="#a"/>
        <g fill="white" mask="url(#b)">
            <path d="M-4 22V-4h26v26z"/>
        </g>
    </g>
</svg>
